<svg version="1.1" xmlns="http://www.w3.org/2000/svg" viewBox="0 0 1024 1024">
  <style>
    path { fill: #2196F3; }
  </style>
  <path d="M611.66,259.79V517.37c0,45.14,0,70.24-16.4,86.63s-41.48,16.4-86.63,16.4-70.24,0-86.63-16.4-16.4-41.49-16.4-86.63V259.79c0-45.14,0-70.24,16.4-86.63s41.49-16.4,86.63-16.4,70.25,0,86.63,16.4S611.66,214.65,611.66,259.79Z"/>
  <path d="M508.63,878c45.15,0,70.25,0,86.64-16.39s16.39-41.49,16.39-86.64,0-70.24-16.39-86.64-41.49-16.39-86.64-16.39-70.24,0-86.63,16.39-16.4,41.49-16.4,86.64,0,70.25,16.4,86.64S463.49,878,508.63,878Z"/>
  <path d="M354.09,517.37V774.94c0,45.15-1.15,69.43-18.66,84.63-9.29,8-29,12.56-46,11.53a141.87,141.87,0,0,1-92-40.9c-9.32-9.3-24-25.85-34.92-62C154.2,740.7,148,723.43,148,646.15V517.37c0-45.15,0-70.25,16.4-86.63s41.48-16.4,86.63-16.4,70.25,0,86.63,16.4S354.09,472.22,354.09,517.37Z"/>
  <path d="M869.24,388.58V646.15c0,77.28-6.17,94.55-14.51,122.07-10.94,36.13-25.6,52.68-34.92,62a141.9,141.9,0,0,1-92,40.9c-17,1-36.72-3.48-46-11.53-17.52-15.2-18.66-39.48-18.66-84.63V259.79c0-45.14,1.14-69.43,18.66-84.62,9.28-8.06,29-12.57,46-11.54a141.9,141.9,0,0,1,92,40.9c9.32,9.3,24,25.86,34.92,62C863.07,294,869.24,311.31,869.24,388.58Z"/>
  <path d="M336.26,347.84c-16.39,16.4-41.48,16.4-86.63,16.4-2.12,0-4.19,0-6.21,0-41.2-.12-63.94-1.94-78.42-18.64-8.06-9.29-12.56-29-11.53-46a141.87,141.87,0,0,1,40.89-92c1-1,2-2,3.14-3l0,0a141.87,141.87,0,0,1,92-40.9c17-1,36.72,3.48,46,11.54,16.7,14.48,18.52,37.21,18.64,78.41,0,2,0,4.09,0,6.21,0,45.15,0,70.25-16.4,86.63Z"/>
</svg>